# xmcd CD database file
#
# Track frame offsets:
#	150
#	18433
#	35813
#	61353
#	83858
#	98981
#	128739
#	150253
#	167490
#	182989
#	206492
#
# Disc length: 3523 seconds
#
# Revision: 0
# Processed by: cddbd v1.5.1PL2 Copyright (c) Steve Scherf et al.
# Submitted via: CDex 1.51
#
DISCID=8a0dc10b
DTITLE=The grand groove orchectra - The Havana sketches
DYEAR=2000
DGENRE=Jazz
TTITLE0=Entrada
TTITLE1=Salam Malekum
TTITLE2=Un Barrio De La Havana
TTITLE3=Havana Sketches
TTITLE4=Si A Veces No Se Lo Que Quiero
TTITLE5=Anana Naïna
TTITLE6=Rowdy Party
TTITLE7=Big Thumb Sissy
TTITLE8=Rumbero Guapo
TTITLE9=Las Aranas
TTITLE10=Babylone
EXTD=YEAR: 2000
EXTT0=
EXTT1=
EXTT2=
EXTT3=
EXTT4=
EXTT5=
EXTT6=
EXTT7=
EXTT8=
EXTT9=
EXTT10=
PLAYORDER=
